<svg width="1024" height="1024" viewBox="0 0 1024 1024" fill="none" xmlns="http://www.w3.org/2000/svg">
  <rect width="1024" height="1024" rx="248" fill="url(#bg)"/>
  <rect x="88" y="88" width="848" height="848" rx="200" fill="url(#panel)" stroke="#FFFFFF" stroke-opacity="0.18"/>
  <circle cx="516" cy="486" r="290" fill="url(#glow)" opacity="0.52"/>
  <path d="M291 266C291 239.49 312.49 218 339 218H684C710.51 218 732 239.49 732 266V339H641V309H382V444H626V528H382V715H732V806H339C312.49 806 291 784.51 291 758V266Z" fill="white"/>
  <path d="M613 238H746L654 430H754L565 681L618 520H510L613 238Z" fill="url(#bolt)"/>
  <path d="M613 238H746L654 430H754L565 681L618 520H510L613 238Z" stroke="#FFFFFF" stroke-opacity="0.35" stroke-width="16" stroke-linejoin="round"/>
  <circle cx="757" cy="294" r="24" fill="#F3FBFF" opacity="0.92"/>
  <circle cx="267" cy="276" r="18" fill="#A0D7FF" opacity="0.7"/>
  <circle cx="769" cy="733" r="20" fill="#A0D7FF" opacity="0.52"/>
  <defs>
    <linearGradient id="bg" x1="116" y1="72" x2="890" y2="936" gradientUnits="userSpaceOnUse">
      <stop stop-color="#92C5FF"/>
      <stop offset="0.18" stop-color="#5E84FF"/>
      <stop offset="0.52" stop-color="#2D44C2"/>
      <stop offset="1" stop-color="#08122F"/>
    </linearGradient>
    <linearGradient id="panel" x1="191" y1="141" x2="841" y2="904" gradientUnits="userSpaceOnUse">
      <stop stop-color="#FFFFFF" stop-opacity="0.22"/>
      <stop offset="1" stop-color="#FFFFFF" stop-opacity="0.03"/>
    </linearGradient>
    <radialGradient id="glow" cx="0" cy="0" r="1" gradientUnits="userSpaceOnUse" gradientTransform="translate(516 486) rotate(90) scale(290)">
      <stop stop-color="#A5EDFF"/>
      <stop offset="0.58" stop-color="#64A9FF"/>
      <stop offset="1" stop-color="#64A9FF" stop-opacity="0"/>
    </radialGradient>
    <linearGradient id="bolt" x1="632" y1="238" x2="632" y2="681" gradientUnits="userSpaceOnUse">
      <stop stop-color="#F8FDFF"/>
      <stop offset="0.3" stop-color="#C6F2FF"/>
      <stop offset="0.65" stop-color="#7FDEFF"/>
      <stop offset="1" stop-color="#3AA8FF"/>
    </linearGradient>
  </defs>
</svg>
